{"title":"Bopha! 1993 DvDRip XviD AC3 5.1 titler","uid":8162137,"size":1498520444,"categoryP":"video","categoryS":"movies","magnet":"?xt=urn:btih:56665248c0449634fa95beb9322b9e49f2c34b15&amp;dn=Bopha%21+1993+DvDRip+XviD+AC3+5.1+titler&amp;tr=udp%3A%2F%2Ftracker.openbittorrent.com%3A80&amp;tr=udp%3A%2F%2Fopen.demonii.com%3A1337&amp;tr=udp%3A%2F%2Ftracker.coppersurfer.tk%3A6969&amp;tr=udp%3A%2F%2Fexodus.desync.com%3A6969","seeders":2,"leechers":1,"uploader":"movieZ.freak","files":6,"time":1361271516,"description":"Bopha! 1993 DvDRip XviD AC3 5.1 titler\n\nSource: DVD9\n &lt;a href=&quot;\nhttp://www.imdb.com/title/tt0106464/&quot; rel=&quot;nofollow&quot; target=&quot;_NEW&quot;&gt;\nhttp://www.imdb.com/title/tt0106464/&lt;/a&gt;\n &lt;a href=&quot;\nhttp://en.wikipedia.org/wiki/Bopha!&quot; rel=&quot;nofollow&quot; target=&quot;_NEW&quot;&gt;\nhttp://en.wikipedia.org/wiki/Bopha!&lt;/a&gt;\n &lt;a href=&quot;\nhttp://www.rottentomatoes.com/m/bopha/&quot; rel=&quot;nofollow&quot; target=&quot;_NEW&quot;&gt;\nhttp://www.rottentomatoes.com/m/bopha/&lt;/a&gt;\n\nSubtitles: English, Serbian, Croatian\n\nDirector: Morgan Freeman\n\nCAST: Danny Glover, Malcolm McDowell, Alfre Woodard, Marius Weyers ...\n\nPLOT: In this story of a black policeman during South African apartheid, Danny Glover plays the cop, who believes he's trying to help his people, even while serving as a pawn of the racist government. When his son gets involved in the anti-apartheid movement, he finds himself torn between his family (including long-suffering wife Alfre Woodard) and what he believes is his duty.\n\n\n\n   General\n----------------\n      Format : AVI\n      Format/Info : Audio Video Interleave\n      File size : 1.36 GiB\n      Duration : 1h 53mn\n      Overall bit rate : 1 719 Kbps\n      Writing application : FairUse Wizard - http://fairusewizard.com\n      Writing library : The best and REALLY easy backup tool\n\n   Video\n----------------\n      Format : MPEG-4 Visual\n      Format profile : Advanced Simple@L5\n      Format settings, BVOP : 1\n      Format settings, QPel : No\n      Format settings, GMC : No warppoints\n      Format settings, Matrix : Default (H.263)\n      Muxing mode : Packed bitstream\n      Codec ID : XVID\n      Codec ID/Hint : XviD\n      Duration : 1h 53mn\n      Bit rate : 1 262 Kbps\n      Width : 688 pixels\n      Height : 384 pixels\n      Display aspect ratio : 16:9\n      Frame rate : 25.000 fps\n      Color space : YUV\n      Chroma subsampling : 4:2:0\n      Bit depth : 8 bits\n      Scan type : Progressive\n      Compression mode : Lossy\n      Bits/(Pixel*Frame) : 0.191\n      Stream size : 1.00 GiB (73%)\n      Writing library : XviD 1.1.0 (UTC 2005-11-22)\n\n   Audio\n-------------------\n      Format : AC-3\n      Format/Info : Audio Coding 3\n      Mode extension : CM (complete main)\n      Format settings, Endianness : Big\n      Codec ID : 2000\n      Duration : 1h 53mn\n      Bit rate mode : Constant\n      Bit rate : 448 Kbps\n      Channel(s) : 6 channels\n      Channel positions : Front: L C R, Side: L R, LFE\n      Sampling rate : 48.0 KHz\n      Bit depth : 16 bits\n      Compression mode : Lossy\n      Stream size : 364 MiB (26%)\n      Alignment : Split accross interleaves\n      Interleave, duration : 40 ms (1.00 video frame)\n      Interleave, preload duration : 500 ms","torrent":{"xt":"urn:btih:56665248c0449634fa95beb9322b9e49f2c34b15","amp;dn":"Bopha%21+1993+DvDRip+XviD+AC3+5.1+titler","amp;tr":["udp%3A%2F%2Ftracker.openbittorrent.com%3A80","udp%3A%2F%2Fopen.demonii.com%3A1337","udp%3A%2F%2Ftracker.coppersurfer.tk%3A6969","udp%3A%2F%2Fexodus.desync.com%3A6969"],"infoHash":"56665248c0449634fa95beb9322b9e49f2c34b15","infoHashBuffer":{"type":"Buffer","data":[86,102,82,72,192,68,150,52,250,149,190,185,50,43,158,73,242,195,75,21]},"announce":[],"urlList":[]}}